<?xml version="1.0" encoding="UTF-8" standalone="no"?>
<!DOCTYPE svg PUBLIC "-//W3C//DTD SVG 1.1//EN" "http://www.w3.org/Graphics/SVG/1.1/DTD/svg11.dtd">
<svg width="100%" height="100%" viewBox="0 0 1365 333" version="1.1" xmlns="http://www.w3.org/2000/svg" xmlns:xlink="http://www.w3.org/1999/xlink" xml:space="preserve" xmlns:serif="http://www.serif.com/" style="fill-rule:evenodd;clip-rule:evenodd;stroke-linejoin:round;stroke-miterlimit:2;">
    <g transform="matrix(1,0,0,1,-1379.64,-910.576)">
        <g transform="matrix(1,0,0,1,423.39,344.091)">
            <g transform="matrix(312.626,0,0,312.626,2138.47,841.89)">
            </g>
            <text x="942.047px" y="841.89px" style="font-family:'Gotham-Medium', 'Gotham';font-weight:350;font-size:312.626px;fill:rgb(227,230,224);stroke:rgb(227,230,224);stroke-width:27.87px;">BUILD<tspan x="1938.39px " y="841.89px ">S</tspan></text>
        </g>
        <g transform="matrix(1.39105,0,0,1.39105,1118.44,57.8133)">
            <g transform="matrix(312.626,0,0,312.626,1169.95,841.89)">
            </g>
            <text x="942.047px" y="841.89px" style="font-family:'Gotham-Medium', 'Gotham';font-weight:350;font-size:312.626px;fill:rgb(212,163,115);stroke:rgb(212,163,115);stroke-width:20.03px;">X</text>
        </g>
        <g transform="matrix(1.27963,0,0,1.27963,-518.774,-383.395)">
            <g transform="matrix(21.7077,0,0,21.7077,1578.66,1259.99)">
            </g>
            <text x="1492.23px" y="1259.99px" style="font-family:'SegoeUIHistoric', 'Segoe UI Historic';font-size:21.708px;fill:rgb(227,230,224);stroke:rgb(227,230,224);stroke-width:0.78px;">by T<tspan x="1530.57px 1543.29px 1550.84px 1558.1px 1569.45px " y="1259.99px 1259.99px 1259.99px 1259.99px 1259.99px ">orres</tspan></text>
        </g>
    </g>
</svg>
